:SAMPLES-PER-SECOND 30
:FRAME-RANGE 1-1390
:FULLY-SPECIFIED
:DEGREES
913
root  -52.9961 41.0884 -61.466 161.589 52.0569 168.292
RightUpLeg  3.60605 0.136209 4.01243
RightLeg  31.322 8.9919 5.63181
RightFoot  12.8749 -2.61225 12.5501
RightToes  -2.9104e-010 0 -3.6325e-017
Spine  17.5387 -0.544883 -8.91917
Spine1  -3.42285 -5.58594 8.38831
HEad  -7.83002 -27.3284 7.93952
LeftShoulder1  3.25044 -5.48055 -30.163
LeftArm  94.0915 -32.0206 -83.8668
LeftForeArm  -16.3681 -20.282 -9.27045
LeftHand  -0.024273 4.29845 -0.906154
RightShoulder  13.8272 21.7066 47.8991
RightArm  45.6457 8.31979 24.0136
RightForeArm  16.1318 21.6405 5.01788
RightHand  1.15496 7.50838 9.97087
LeftUpLeg  -95.9446 21.61 -74.7056
LeftLeg  123.629 -7.01336 9.19742
LeftFoot  13.326 2.09686 -9.94668
LeftToes  5.45371e-012 -1.3743e-010 1.09575e-010
914
root  -52.4678 41.3827 -61.9363 160.164 56.5436 167.273
RightUpLeg  0.564471 0.842931 2.66827
RightLeg  33.2076 3.56577 2.26487
RightFoot  9.11039 -1.73872 9.96469
RightToes  -2.9104e-010 0 -3.6325e-017
Spine  18.5693 -0.499484 -8.30278
Spine1  -2.94265 -5.68181 8.49528
HEad  -7.14027 -24.4595 7.20882
LeftShoulder1  3.2556 -5.52642 -30.0346
LeftArm  79.3068 -34.886 -85.4798
LeftForeArm  -1.90396 -16.0489 -13.0492
LeftHand  -0.0238155 4.1851 -0.27289
RightShoulder  14.3569 23.1571 46.9755
RightArm  43.5141 10.7566 23.928
RightForeArm  18.4891 20.1328 6.20257
RightHand  1.11074 7.80791 9.34532
LeftUpLeg  -96.4872 21.5937 -74.9212
LeftLeg  120.92 -6.00488 8.67576
LeftFoot  11.1529 1.70015 -8.88088
LeftToes  5.45371e-012 -1.3743e-010 1.09575e-010
915
root  -51.9787 41.4109 -62.45 160.065 61.0711 167.47
RightUpLeg  -0.99835 0.135297 1.98212
RightLeg  26.3915 0.913111 0.264188
RightFoot  4.19251 -1.15124 8.63604
RightToes  -2.9104e-010 0 -3.6325e-017
Spine  20.2094 -0.64708 -6.35441
Spine1  -2.89374 -5.79536 8.45078
HEad  -7.83182 -21.7399 6.54394
LeftShoulder1  3.28947 -5.59278 -30.1459
LeftArm  67.294 -37.5456 -86.8626
LeftForeArm  8.04513 -12.2728 -15.5242
LeftHand  -0.0271059 4.48566 0.390476
RightShoulder  14.0229 24.0835 44.2087
RightArm  39.4867 13.8424 25.7483
RightForeArm  23.0749 17.8743 8.1627
RightHand  1.05957 8.06412 8.71797
LeftUpLeg  -96.9235 21.9868 -74.4306
LeftLeg  118.166 -4.50471 7.15095
LeftFoot  10.9008 1.78752 -9.41807
LeftToes  5.45371e-012 -1.3743e-010 1.09575e-010
916
root  -51.528 40.9514 -62.9688 160.085 66.4685 167.099
RightUpLeg  -3.64228 -2.58469 2.04298
RightLeg  19.116 -0.655975 -0.531105
RightFoot  -1.88573 -0.628397 7.43171
RightToes  -2.9104e-010 0 -3.6325e-017
Spine  21.8301 -0.605114 -4.21427
Spine1  -3.10742 -5.48347 7.73757
HEad  -8.7505 -18.8413 5.90154
LeftShoulder1  3.31296 -5.89112 -29.233
LeftArm  64.2997 -39.7255 -88.1124
LeftForeArm  10.2638 -11.0445 -16.1716
LeftHand  -0.030194 4.79839 0.771699
RightShoulder  15.5891 26.8402 44.6301
RightArm  38.1275 15.1335 23.4502
RightForeArm  23.8116 17.7307 8.27788
RightHand  1.11179 8.10591 9.13377
LeftUpLeg  -98.7324 22.0007 -74.3296
LeftLeg  115.841 -3.73304 6.44331
LeftFoot  11.734 2.36957 -11.9273
LeftToes  5.45371e-012 -1.3743e-010 1.09575e-010
917
root  -50.8932 39.9589 -63.4385 159.077 71.6122 165.649
RightUpLeg  -6.36324 -4.9604 2.74125
RightLeg  15.289 -5.73234 -1.26729
RightFoot  -5.11897 -0.436813 7.38384
RightToes  -2.9104e-010 0 -3.6325e-017
Spine  22.0987 -0.366269 -3.91634
Spine1  -2.43835 -5.48823 7.98373
HEad  -8.87716 -15.0207 5.01768
LeftShoulder1  3.27345 -5.95035 -28.5799
LeftArm  62.4928 -41.5421 -88.0013
LeftForeArm  9.38051 -10.359 -16.5875
LeftHand  -0.0303424 4.82296 0.853146
RightShoulder  16.3903 28.5664 44.3295
RightArm  36.3776 17.3271 23.2327
RightForeArm  25.8096 16.4735 9.39483
RightHand  1.10585 8.07171 9.1079
LeftUpLeg  -100.677 21.6773 -74.028
LeftLeg  114.517 -3.03517 5.44587
LeftFoot  13.3897 2.78748 -13.0462
LeftToes  5.45371e-012 -1.3743e-010 1.09575e-010
918
root  -50.0374 38.6961 -63.9268 157.557 75.1048 164.695
RightUpLeg  -8.61365 -10.4914 4.24506
RightLeg  19.8309 -6.25156 -1.38716
RightFoot  -7.4263 0.188354 -6.96373
RightToes  -2.9104e-010 0 -3.6325e-017
Spine  21.9506 -0.504702 -3.64963
Spine1  -1.55198 -5.87407 8.17437
HEad  -7.65786 -12.5749 3.89397
LeftShoulder1  3.2385 -5.88931 -28.4288
LeftArm  58.3959 -42.3772 -87.7851
LeftForeArm  12.533 -9.04041 -17.0899
LeftHand  -0.0304937 4.90216 1.18246
RightShoulder  16.7764 29.1828 44.5084
RightArm  36.4315 18.3059 23.2861
RightForeArm  26.0668 15.9275 9.92498
RightHand  1.0762 8.00819 8.89974
LeftUpLeg  -100.573 21.9345 -72.3882
LeftLeg  114.043 -2.90482 5.30036
LeftFoot  14.5338 3.25972 -14.5177
LeftToes  5.45371e-012 -1.3743e-010 1.09575e-010
919
root  -49.1695 37.1138 -64.3694 159.622 79.4504 169.731
RightUpLeg  -12.3223 -4.232 8.36767
RightLeg  36.3706 -9.34469 -7.5864
RightFoot  -15.2053 -0.3779 -8.1456
RightToes  -2.9104e-010 0 -3.6325e-017
Spine  24.4394 -0.439155 -1.07651
Spine1  -1.23943 -5.17974 7.43093
HEad  -9.33568 -10.6669 3.1788
LeftShoulder1  3.1845 -5.56797 -29.0683
LeftArm  52.6995 -42.7974 -87.9169
LeftForeArm  20.0913 -7.14063 -17.5185
LeftHand  -0.0263 5.39463 2.78553
RightShoulder  17.186 29.0087 45.9153
RightArm  36.7601 19.5241 22.3368
RightForeArm  25.9582 15.5433 10.3531
RightHand  1.07918 7.71233 9.14133
LeftUpLeg  -100.46 24.0653 -69.2328
LeftLeg  115.077 -2.3891 4.05793
LeftFoot  14.0778 2.39075 -10.9597
LeftToes  5.45371e-012 -1.3743e-010 1.09575e-010
920
root  -48.2401 36.0252 -64.8523 157.577 81.8256 168.442
RightUpLeg  -14.206 -3.7436 8.76119
RightLeg  45.403 -7.73978 -8.64455
RightFoot  -20.7824 -0.796866 -7.93442
RightToes  -2.9104e-010 0 -3.6325e-017
Spine  22.343 -1.23846 -1.95951
Spine1  2.29442 -6.16662 7.91745
HEad  -10.6917 -7.27613 2.4228
LeftShoulder1  3.17056 -5.56313 -28.9303
LeftArm  65.7089 -41.9098 -87.3299
LeftForeArm  9.00639 -11.1894 -16.1453
LeftHand  -0.0266177 5.34709 3.62316
RightShoulder  18.0491 30.3066 46.3449
RightArm  31.4135 20.4747 22.1014
RightForeArm  30.2733 13.3112 11.8348
RightHand  1.1341 7.83694 9.52636
LeftUpLeg  -98.5863 24.4479 -68.1638
LeftLeg  114.753 -3.72188 6.73487
LeftFoot  11.4734 0.909309 -4.85395
LeftToes  5.45371e-012 -1.3743e-010 1.09575e-010
921
root  -47.1789 35.6245 -65.2048 162.298 81.1068 174.87
RightUpLeg  -11.7924 -5.01502 9.03014
RightLeg  48.2968 -7.53903 -9.3156
RightFoot  -24.2844 -0.978123 -7.16297
RightToes  -2.9104e-010 0 -3.6325e-017
Spine  22.4162 -2.06289 -3.87488
Spine1  3.01365 -7.80144 10.9972
HEad  -9.90367 -5.98063 1.89806
LeftShoulder1  3.27951 -5.72315 -29.5172
LeftArm  56.0747 -42.5715 -87.8205
LeftForeArm  18.4008 -8.25098 -17.1753
LeftHand  -0.0226303 5.55118 3.0682
RightShoulder  17.2478 28.6896 46.5741
RightArm  35.369 19.9303 22.1314
RightForeArm  27.133 14.4581 11.2406
RightHand  1.14116 7.87228 9.56039
LeftUpLeg  -93.8096 24.8367 -66.3475
LeftLeg  115.465 -5.05833 9.04686
LeftFoot  8.74403 0.13777 -1.07936
LeftToes  5.45371e-012 -1.3743e-010 1.09575e-010
922
root  -46.1154 35.8286 -65.4846 163.486 81.3529 176.233
RightUpLeg  -8.91884 -3.9424 9.23559
RightLeg  47.1286 -8.3769 -9.87711
RightFoot  -25.3154 -0.903387 -5.96589
RightToes  -2.9104e-010 0 -3.6325e-017
Spine  21.8351 -2.44084 -4.67658
Spine1  2.11948 -8.26921 11.763
HEad  -9.40748 -5.62754 1.67103
LeftShoulder1  3.35451 -5.77112 -30.1528
LeftArm  49.3067 -41.8949 -87.9327
LeftForeArm  25.9739 -6.28042 -17.5555
LeftHand  -0.0198728 5.75487 2.69165
RightShoulder  16.3512 27.0387 46.59
RightArm  39.7749 17.907 22.1977
RightForeArm  22.76 16.6196 9.60582
RightHand  1.15175 7.7903 9.71609
LeftUpLeg  -91.7039 23.7954 -66.1626
LeftLeg  116.757 -5.83815 9.94683
LeftFoot  11.1293 0.367043 -2.19093
LeftToes  5.45371e-012 -1.3743e-010 1.09575e-010
923
root  -45.0573 36.6869 -65.6879 153.838 82.6532 166.05
RightUpLeg  -4.65713 -2.71968 7.75993
RightLeg  41.5347 -8.45741 -8.23925
RightFoot  -23.9398 -0.828856 -6.03416
RightToes  -2.9104e-010 0 -3.6325e-017
Spine  20.3775 -2.21735 -5.8886
Spine1  1.48068 -8.04568 11.3382
HEad  -8.70366 -5.09427 1.07145
LeftShoulder1  3.34076 -5.72097 -30.2008
LeftArm  58.5403 -39.7303 -87.278
LeftForeArm  17.5924 -9.43148 -16.6937
LeftHand  -0.0278243 5.31629 2.69186
RightShoulder  15.7282 25.9726 46.4607
RightArm  42.6817 16.1987 22.5879
RightForeArm  19.9223 18.1715 8.23408
RightHand  1.16716 7.70809 9.91613
LeftUpLeg  -91.7764 23.1391 -67.7729
LeftLeg  118.004 -5.33635 8.60862
LeftFoot  14.4859 0.928871 -4.43935
LeftToes  5.45371e-012 -1.3743e-010 1.09575e-010
924
root  -44.0038 37.928 -65.9108 132.844 83.8325 144.192
RightUpLeg  0.363462 -1.48374 5.27605
RightLeg  33.0996 -7.57817 -5.54331
RightFoot  -20.0062 -0.57567 -5.80783
RightToes  -2.9104e-010 0 -3.6325e-017
Spine  19.1844 -1.54165 -6.61967
Spine1  -0.498472 -7.03828 10.0642
HEad  -6.07293 -4.72951 -0.0968939
LeftShoulder1  3.31567 -5.58738 -30.4598
LeftArm  61.4569 -37.9825 -86.6597
LeftForeArm  14.8611 -10.5579 -16.2402
LeftHand  -0.0323662 4.95851 1.97515
RightShoulder  15.1606 24.9021 46.5014
RightArm  44.811 13.8841 22.8498
RightForeArm  17.8097 19.5253 6.95411
RightHand  1.17052 7.75228 9.91709
LeftUpLeg  -93.1258 22.3995 -69.9738
LeftLeg  119.016 -4.65996 7.16389
LeftFoot  14.6775 1.64401 -7.50017
LeftToes  5.45371e-012 -1.3743e-010 1.09575e-010
925
root  -42.9993 39.2866 -66.1535 99.6945 84.1348 110.063
RightUpLeg  4.20732 -0.570803 2.30502
RightLeg  25.6479 -4.71595 -2.6953
RightFoot  -13.1166 -0.144687 -3.61684
RightToes  -2.9104e-010 0 -3.6325e-017
Spine  17.8567 -0.707418 -7.28665
Spine1  -2.31743 -5.878 8.65838
HEad  -2.48487 -3.70589 -0.918885
LeftShoulder1  3.27965 -5.58966 -30.0488
LeftArm  57.189 -37.1913 -86.3633
LeftForeArm  18.1703 -9.39386 -16.6875
LeftHand  -0.0325541 4.91606 1.34537
RightShoulder  15.0245 24.3749 46.9844
RightArm  46.8287 12.5211 23.0471
RightForeArm  16.6899 20.1599 6.39312
RightHand  1.17237 7.71758 9.88844
LeftUpLeg  -95.7868 21.5689 -72.0438
LeftLeg  119.626 -4.53159 6.78647
LeftFoot  13.9966 1.99959 -9.26436
LeftToes  5.45371e-012 -1.3743e-010 1.09575e-010
926
root  -42.1197 40.523 -66.4143 70.3456 84.017 80.4522
RightUpLeg  6.38702 -1.1807 0.455326
RightLeg  21.5508 -0.94086 -0.639464
RightFoot  -4.23766 -0.0126498 -0.25981
RightToes  -2.9104e-010 0 -3.6325e-017
Spine  17.3561 -0.330143 -7.10775
Spine1  -3.00362 -5.39968 8.02626
HEad  -0.512546 -1.86247 -1.59991
LeftShoulder1  3.21247 -5.6188 -29.1819
LeftArm  55.6013 -37.4366 -86.1768
LeftForeArm  18.5601 -8.88545 -16.9019
LeftHand  -0.0299285 5.0235 1.19549
RightShoulder  15.5407 24.984 47.5601
RightArm  45.7966 12.9808 23.2392
RightForeArm  17.6944 19.4974 6.99777
RightHand  1.16833 7.79639 9.85569
LeftUpLeg  -98.3658 20.8451 -72.421
LeftLeg  119.549 -4.8914 7.38292
LeftFoot  14.5504 1.9766 -8.97585
LeftToes  5.45371e-012 -1.3743e-010 1.09575e-010
927
root  -41.3945 41.4038 -66.6843 44.5575 83.6768 54.6821
RightUpLeg  5.96941 -2.31814 -0.0542082
RightLeg  22.0713 0.415186 -0.035603
RightFoot  4.25327 -0.706447 5.36745
RightToes  -2.9104e-010 0 -3.6325e-017
Spine  18.0011 -0.0870349 -6.75946
Spine1  -3.45372 -5.29327 8.71465
HEad  0.194353 0.355265 -1.93391
LeftShoulder1  3.15796 -5.66231 -28.4025
LeftArm  57.4934 -38.0396 -86.257
LeftForeArm  14.7884 -9.38311 -16.8345
LeftHand  -0.029438 5.03202 0.978513
RightShoulder  16.1158 25.8539 47.8428
RightArm  41.6545 14.1392 23.2223
RightForeArm  20.9583 18.1198 8.15423
RightHand  1.14315 7.98925 9.48834
LeftUpLeg  -100.578 20.1307 -72.2402
LeftLeg  118.631 -5.29537 8.32619
LeftFoot  14.2088 1.88281 -8.6784
LeftToes  5.45371e-012 -1.3743e-010 1.09575e-010
